<?xml version="1.0" encoding="utf-8"?>
<!-- Generator: Adobe Illustrator 26.1.0, SVG Export Plug-In . SVG Version: 6.00 Build 0)  -->
<svg version="1.1" id="Слой_1" xmlns="http://www.w3.org/2000/svg" xmlns:xlink="http://www.w3.org/1999/xlink" x="0px" y="0px"
	 viewBox="0 0 70 50" style="enable-background:new 0 0 70 50;" xml:space="preserve">
<style type="text/css">
	.st0{fill:#303030;}
</style>
<path class="st0" d="M21.77,24.73c2.41-0.03,4.82-0.06,7.23-0.09c1.49-3.53,2.98-7.06,4.46-10.58c-2.41,0.03-4.82,0.06-7.23,0.09
	C24.75,17.68,23.26,21.2,21.77,24.73z"/>
<path class="st0" d="M0,28.94c0.06,0.63,0.13,1.27,0.19,1.9c6.16,0.05,12.32,0.1,18.48,0.16c-0.2-1.24-0.4-2.47-0.61-3.71
	C12.05,27.84,6.02,28.39,0,28.94z"/>
<path class="st0" d="M0,33.98h18.28v7.58h-0.98c-1.17-2.81-4.45-4.84-8.36-4.84s-7.2,2.04-8.36,4.84H0L0,33.98z"/>
<g>
	<path class="st0" d="M1.87,44.38c0,3.03,2.99,5.48,6.68,5.48c3.69,0,6.68-2.45,6.68-5.48c0-3.03-2.99-5.48-6.68-5.48
		C4.86,38.9,1.87,41.35,1.87,44.38z M5.5,44.38c0-1.38,1.36-2.5,3.05-2.5c1.68,0,3.05,1.12,3.05,2.5c0,1.38-1.36,2.5-3.05,2.5
		C6.87,46.88,5.5,45.76,5.5,44.38z"/>
	<ellipse class="st0" cx="8.75" cy="44.38" rx="1.67" ry="1.37"/>
</g>
<g>
	<path class="st0" d="M55.63,44.38c0,3.03,2.99,5.48,6.68,5.48c3.69,0,6.68-2.45,6.68-5.48c0-3.03-2.99-5.48-6.68-5.48
		C58.63,38.9,55.63,41.35,55.63,44.38z M59.27,44.38c0-1.38,1.36-2.5,3.05-2.5c1.68,0,3.05,1.12,3.05,2.5c0,1.38-1.36,2.5-3.05,2.5
		C60.63,46.88,59.27,45.76,59.27,44.38z"/>
	<path class="st0" d="M62.51,43.01c0.92,0,1.67,0.61,1.67,1.37c0,0.76-0.75,1.37-1.67,1.37c-0.92,0-1.67-0.61-1.67-1.37
		C60.84,43.62,61.59,43.01,62.51,43.01z"/>
</g>
<path class="st0" d="M46.27,5.69c0.94-1.61,1.88-3.22,2.82-4.84c1.88,0,3.76,0,5.64,0c-1.57,2.24-3.13,4.48-4.7,6.72V5.69H46.27z"/>
<path class="st0" d="M49.24,8.92C48.13,8.46,47.02,8,45.9,7.55V6.34c0.13-0.21,0.26-0.43,0.39-0.64h3.93v1.88
	c-0.01,0.01-0.01,0.01-0.02,0.02C49.89,8.04,49.57,8.48,49.24,8.92z"/>
<rect x="45.9" y="6.27" transform="matrix(-1 -3.533053e-11 3.533053e-11 -1 96.1269 42.6561)" class="st0" width="4.32" height="30.11"/>
<rect x="21.92" y="38.9" transform="matrix(-1 -3.612323e-11 3.612323e-11 -1 64.2812 84.564)" class="st0" width="20.44" height="6.77"/>
<path class="st0" d="M31.55,28.26h-9.83c0.01,0,0.15,3.62,0.29,7.66h20.64V14.16c-1.74-0.13-3.47-0.27-5.21-0.4
	c-2.32,5.08-5.9,12.89-5.9,12.89S31.55,27.18,31.55,28.26z M34.11,29.06h3.93v3.22h-3.93V29.06z"/>
<path class="st0" d="M45.07,38.9h10.62v0.69c-1.97,1.54-3.22,3.69-3.32,6.08h-7.29V38.9z"/>
</svg>
